<svg>
    <svg id="add" viewBox="0 0 448 448" xmlns="http://www.w3.org/2000/svg" fill="currentColor" stroke="currentColor">
        <path d="M 408,192 H 268 c -4.41797,0 -12,-7.58203 -12,-12 V 40 C 256,17.910156 246.08984,8 224,8 201.91016,8 192,17.910156 192,40 v 140 c 0,4.41797 -7.58203,12 -12,12 H 40 c -22.089844,0 -32,9.91016 -32,32 0,22.08984 9.910156,32 32,32 h 140 c 4.41797,0 12,7.58203 12,12 v 140 c 0,22.08984 9.91016,32 32,32 22.08984,0 32,-9.91016 32,-32 V 268 c 0,-4.41797 7.58203,-12 12,-12 h 140 c 22.08984,0 32,-9.91016 32,-32 0,-22.08984 -9.91016,-32 -32,-32 z"/>
    </svg>

    <svg id="boardView" viewBox="0 0 14 14" xmlns="http://www.w3.org/2000/svg" fill="currentColor" stroke="currentColor">
        <path d="M7 1v8a1 1 0 001 1h4a1 1 0 001-1V2a1 1 0 00-1-1H7zm0 0H2a1 1 0 00-1 1v10a1 1 0 001 1h4a1 1 0 001-1V1z" stroke="currentcolor" stroke-width="1.5" fill="none" fill-rule="evenodd"/>
    </svg>

    <svg id="check" viewBox="0 -46 417.81333 417" xmlns="http://www.w3.org/2000/svg" fill="currentColor" stroke="currentColor">
        <path d="m159.988281 318.582031c-3.988281 4.011719-9.429687 6.25-15.082031 6.25s-11.09375-2.238281-15.082031-6.25l-120.449219-120.46875c-12.5-12.5-12.5-32.769531 0-45.246093l15.082031-15.085938c12.503907-12.5 32.75-12.5 45.25 0l75.199219 75.203125 203.199219-203.203125c12.503906-12.5 32.769531-12.5 45.25 0l15.082031 15.085938c12.5 12.5 12.5 32.765624 0 45.246093zm0 0"/>
    </svg>

    <svg id="close" viewBox="-10 -10 350 350" xmlns="http://www.w3.org/2000/svg" fill="currentColor" stroke="currentColor">
        <path stroke-width="10" d="m194.800781 164.769531 128.210938-128.214843c8.34375-8.339844 8.34375-21.824219 0-30.164063-8.339844-8.339844-21.824219-8.339844-30.164063 0l-128.214844 128.214844-128.210937-128.214844c-8.34375-8.339844-21.824219-8.339844-30.164063 0-8.34375 8.339844-8.34375 21.824219 0 30.164063l128.210938 128.214843-128.210938 128.214844c-8.34375 8.339844-8.34375 21.824219 0 30.164063 4.15625 4.160156 9.621094 6.25 15.082032 6.25 5.460937 0 10.921875-2.089844 15.082031-6.25l128.210937-128.214844 128.214844 128.214844c4.160156 4.160156 9.621094 6.25 15.082032 6.25 5.460937 0 10.921874-2.089844 15.082031-6.25 8.34375-8.339844 8.34375-21.824219 0-30.164063zm0 0"/>
    </svg>

    <svg id="colorPalette" viewBox="0 0 510 510" xmlns="http://www.w3.org/2000/svg" fill="currentColor" stroke="currentColor">
        <path d="m108.649 194.85c-30.425 0-55.177 24.752-55.177 55.177s24.752 55.177 55.177 55.177 55.177-24.752 55.177-55.177-24.752-55.177-55.177-55.177zm0 80.356c-13.883 0-25.179-11.295-25.179-25.179s11.296-25.179 25.179-25.179 25.179 11.295 25.179 25.179-11.296 25.179-25.179 25.179z"/>
        <path d="m206.358 325.171c-30.424 0-55.176 24.752-55.176 55.177 0 30.424 24.752 55.176 55.176 55.176 30.425 0 55.177-24.752 55.177-55.176 0-30.425-24.752-55.177-55.177-55.177zm0 80.355c-13.883 0-25.178-11.295-25.178-25.179s11.295-25.179 25.178-25.179c13.884 0 25.179 11.295 25.179 25.179.001 13.884-11.295 25.179-25.179 25.179z"/>
        <path d="m496.18 324.693c-.099-.098-.198-.194-.299-.29l-51.938-49.011c29.074-21.984 42.208-60.897 30.264-96.895-56.309-169.883-272.685-223.779-401.614-96.798-96.561 95.102-95.66 248.445-4.044 342.874 82.305 84.831 211.993 96.745 307.711 34.089 44.824-29.332 24.217-99.152-29.421-99.152-40.06 0-46.792-56.011-8.951-65.602l91.503 96.974c.096.101.192.201.291.3 18.343 18.385 48.139 18.434 66.53.042 18.389-18.388 18.389-48.152-.032-66.531zm-193.801 47.105c12.051 11.42 27.84 17.709 44.461 17.709 23.956 0 32.988 30.972 12.993 44.056-83.775 54.84-197.555 44.538-269.754-29.878-80.978-83.463-80.501-217.407 3.896-300.423 113.093-111.242 302.248-64.702 351.759 84.677 8.389 25.283-2.094 52.756-24.082 66.419l-83.314-78.619c5.044-24.218-1.942-49.749-20.246-68.052-22.973-22.974-95.346-34.425-126.711-37.832-9.513-1.036-17.568 7.006-16.533 16.533 3.435 31.487 14.819 103.696 37.833 126.711 18.316 18.314 43.86 25.286 68.059 20.243l35.094 37.192c-37.37 20.287-44.958 71.41-13.455 101.264zm-68.487-179.911c-11.303-11.303-21.402-54.292-26.734-89.723 35.432 5.331 78.421 15.431 89.723 26.734 17.404 17.404 17.407 45.58 0 62.989-17.365 17.367-45.547 17.442-62.989 0zm241.11 178.126c-6.61 6.61-17.308 6.64-23.957.107-7.678-8.137-134.279-142.308-141.333-149.783 5.918-4.395 11.222-9.699 15.623-15.623l149.784 141.343c6.539 6.656 6.503 17.335-.117 23.956z"/>
    </svg>

    <svg id="date" viewBox="0 0 477.867 477.867" xmlns="http://www.w3.org/2000/svg" fill="currentColor" stroke="currentColor">
        <path d="M426.667,51.2h-51.2V17.067C375.467,7.641,367.826,0,358.4,0s-17.067,7.641-17.067,17.067V51.2h-204.8V17.067
		C136.533,7.641,128.892,0,119.467,0S102.4,7.641,102.4,17.067V51.2H51.2C22.923,51.2,0,74.123,0,102.4v324.267
		c0,28.277,22.923,51.2,51.2,51.2h375.467c28.277,0,51.2-22.923,51.2-51.2V102.4C477.867,74.123,454.944,51.2,426.667,51.2z
		 M443.733,426.667c0,9.426-7.641,17.067-17.067,17.067H51.2c-9.426,0-17.067-7.641-17.067-17.067V204.8h409.6V426.667z
		 M443.733,170.667h-409.6V102.4c0-9.426,7.641-17.067,17.067-17.067h51.2v34.133c0,9.426,7.641,17.067,17.067,17.067
		s17.067-7.641,17.067-17.067V85.333h204.8v34.133c0,9.426,7.641,17.067,17.067,17.067s17.067-7.641,17.067-17.067V85.333h51.2
		c9.426,0,17.067,7.641,17.067,17.067V170.667z"/>
        <path d="M352.98,243.934c-6.614-6.388-17.099-6.388-23.712,0L204.8,368.401l-56.201-56.201c-6.78-6.548-17.584-6.36-24.132,0.419
		c-6.388,6.614-6.388,17.099,0,23.713l68.267,68.267c6.665,6.662,17.468,6.662,24.132,0l136.533-136.533
		C359.947,261.286,359.759,250.482,352.98,243.934z"/>
    </svg>

    <svg id="delete" viewBox="0 0 512 512" xmlns="http://www.w3.org/2000/svg" fill="currentColor" stroke="currentColor" preserveAspectRatio="xMidYMid meet">
        <path d="m368 65h-18.414c-6.867-36.273-38.67-65-77.586-65h-32c-38.891 0-70.715 28.708-77.586 65h-18.414c-52.383 0-95 42.617-95 95 0 8.284 6.716 15 15 15h26.031l21.023 295.196c1.668 23.442 21.385 41.804 44.885 41.804h200.121c23.5 0 43.217-18.362 44.886-41.804l21.023-295.196h26.031c8.284 0 15-6.716 15-15 0-52.383-42.617-95-95-95zm-128-35h32c21.9 0 40.49 14.734 46.748 35h-125.496c6.258-20.266 24.848-35 46.748-35zm131.023 438.065c-.557 7.813-7.129 13.935-14.962 13.935h-200.122c-7.833 0-14.406-6.121-14.962-13.935l-20.871-293.065h271.787zm-290.276-323.065c6.789-28.635 32.573-50 63.253-50h224c30.681 0 56.464 21.365 63.253 50-13.514 0-339.163 0-350.506 0z"/>
        <path d="m303.251 430.981c8.247.41 15.315-5.931 15.73-14.232l8-160c.414-8.273-5.958-15.316-14.232-15.73-8.261-.423-15.317 5.958-15.73 14.232l-8 160c-.414 8.273 5.958 15.316 14.232 15.73z"/>
        <path d="m207.987 431c8.637 0 15.42-7.223 14.994-15.749l-8-160c-.414-8.273-7.468-14.647-15.73-14.232-8.274.414-14.646 7.457-14.232 15.73l8 160c.4 8.019 7.028 14.251 14.968 14.251z"/>
    </svg>

    <svg id="doubleArrow" viewBox="0 0 612.02 612.02" xmlns="http://www.w3.org/2000/svg" fill="currentColor" stroke="currentColor">
        <path d="M596.96,269.674L342.381,15.094c-20.079-20.079-52.644-20.079-72.723,0c-20.079,20.079-20.079,52.644,0,72.723 L487.852,306.01L269.658,524.202c-20.079,20.079-20.079,52.644,0,72.723s52.644,20.079,72.723,0L596.96,342.346 C617.039,322.317,617.039,289.753,596.96,269.674z M290.858,254.258L88.744,41.238c-20.309-21.378-53.204-21.378-73.513,0 s-20.309,56.058,0,77.462l165.371,174.289L15.231,467.278c-20.309,21.379-20.309,56.083,0,77.462s53.204,21.379,73.513,0 L290.858,331.72C311.167,310.342,311.167,275.662,290.858,254.258z"/>
    </svg>

    <svg id="dropdownCollapse" viewBox="0 0 240.811 240.811" xmlns="http://www.w3.org/2000/svg" fill="currentColor" stroke="currentColor">
        <path d="M220.088,57.667l-99.671,99.695L20.746,57.655c-4.752-4.752-12.439-4.752-17.191,0 c-4.74,4.752-4.74,12.451,0,17.203l108.261,108.297l0,0l0,0c4.74,4.752,12.439,4.752,17.179,0L237.256,74.859 c4.74-4.752,4.74-12.463,0-17.215C232.528,52.915,224.828,52.915,220.088,57.667z"/>
    </svg>

    <svg id="email" viewBox="-20 -20 519.058 519.058" xmlns="http://www.w3.org/2000/svg" fill="currentColor" stroke="currentColor" stroke-width="20">
        <path d="m434.146 59.882h-389.234c-24.766 0-44.912 20.146-44.912 44.912v269.47c0 24.766 20.146 44.912 44.912 44.912h389.234c24.766 0 44.912-20.146 44.912-44.912v-269.47c0-24.766-20.146-44.912-44.912-44.912zm0 29.941c2.034 0 3.969.422 5.738 1.159l-200.355 173.649-200.356-173.649c1.769-.736 3.704-1.159 5.738-1.159zm0 299.411h-389.234c-8.26 0-14.971-6.71-14.971-14.971v-251.648l199.778 173.141c2.822 2.441 6.316 3.655 9.81 3.655s6.988-1.213 9.81-3.655l199.778-173.141v251.649c-.001 8.26-6.711 14.97-14.971 14.97z"/>
    </svg>

    <svg id="grabber" viewBox="0 0 46.7335 93.467" xmlns="http://www.w3.org/2000/svg" fill="currentColor" stroke="currentColor">
        <circle cx="10.079" cy="10.428" r="10.079"/>
        <circle cx="34.419" cy="10.428" r="10.079"/>
        <circle cx="10.079" cy="34.905" r="10.079"/>
        <circle cx="34.419" cy="34.905" r="10.079"/>
        <circle cx="10.079" cy="58.902" r="10.079"/>
        <circle cx="34.419" cy="58.902" r="10.079"/>
        <circle cx="10.079" cy="83.038" r="10.079"/>
        <circle cx="34.419" cy="83.038" r="10.079"/>
    </svg>

    <svg id="help" viewBox="0 0 512 512" xmlns="http://www.w3.org/2000/svg" fill="currentColor" stroke="currentColor">
        <circle cx="256" cy="378.5" r="25"/>
        <path d="M256,0C114.516,0,0,114.497,0,256c0,141.484,114.497,256,256,256c141.484,0,256-114.497,256-256
			C512,114.516,397.503,0,256,0z M256,472c-119.377,0-216-96.607-216-216c0-119.377,96.607-216,216-216
			c119.377,0,216,96.607,216,216C472,375.377,375.393,472,256,472z"/>
        <path d="M256,128.5c-44.112,0-80,35.888-80,80c0,11.046,8.954,20,20,20s20-8.954,20-20c0-22.056,17.944-40,40-40
			c22.056,0,40,17.944,40,40c0,22.056-17.944,40-40,40c-11.046,0-20,8.954-20,20v50c0,11.046,8.954,20,20,20
			c11.046,0,20-8.954,20-20v-32.531c34.466-8.903,60-40.26,60-77.469C336,164.388,300.112,128.5,256,128.5z"/>
    </svg>

    <svg id="home" viewBox="-20 -20 552 552" stroke-width="7.5" xmlns="http://www.w3.org/2000/svg" fill="currentColor" stroke="currentColor">
        <path d="m498.699219 222.695312c-.015625-.011718-.027344-.027343-.039063-.039062l-208.855468-208.847656c-8.902344-8.90625-20.738282-13.808594-33.328126-13.808594-12.589843 0-24.425781 4.902344-33.332031 13.808594l-208.746093 208.742187c-.070313.070313-.144532.144531-.210938.214844-18.28125 18.386719-18.25 48.21875.089844 66.558594 8.378906 8.382812 19.441406 13.234375 31.273437 13.746093.484375.046876.96875.070313 1.457031.070313h8.320313v153.695313c0 30.417968 24.75 55.164062 55.167969 55.164062h81.710937c8.285157 0 15-6.71875 15-15v-120.5c0-13.878906 11.292969-25.167969 25.171875-25.167969h48.195313c13.878906 0 25.167969 11.289063 25.167969 25.167969v120.5c0 8.28125 6.714843 15 15 15h81.710937c30.421875 0 55.167969-24.746094 55.167969-55.164062v-153.695313h7.71875c12.585937 0 24.421875-4.902344 33.332031-13.8125 18.359375-18.367187 18.367187-48.253906.027344-66.632813zm-21.242188 45.421876c-3.238281 3.238281-7.542969 5.023437-12.117187 5.023437h-22.71875c-8.285156 0-15 6.714844-15 15v168.695313c0 13.875-11.289063 25.164062-25.167969 25.164062h-66.710937v-105.5c0-30.417969-24.746094-55.167969-55.167969-55.167969h-48.195313c-30.421875 0-55.171875 24.75-55.171875 55.167969v105.5h-66.710937c-13.875 0-25.167969-11.289062-25.167969-25.164062v-168.695313c0-8.285156-6.714844-15-15-15h-22.328125c-.234375-.015625-.464844-.027344-.703125-.03125-4.46875-.078125-8.660156-1.851563-11.800781-4.996094-6.679688-6.679687-6.679688-17.550781 0-24.234375.003906 0 .003906-.003906.007812-.007812l.011719-.011719 208.847656-208.839844c3.234375-3.238281 7.535157-5.019531 12.113281-5.019531 4.574219 0 8.875 1.78125 12.113282 5.019531l208.800781 208.796875c.03125.03125.066406.0625.097656.09375 6.644531 6.691406 6.632813 17.539063-.03125 24.207032zm0 0"/>
    </svg>

    <svg id="invitation" viewBox="0 0 437.662 437.662" xmlns="http://www.w3.org/2000/svg" fill="currentColor" stroke="currentColor">
        <path d="M424.673,155.963l-53.8-44.9v-63.7c0-5.5-4.8-9.7-10.4-9.7h-78.3l-31.4-26.2c-18.5-15.3-45.3-15.3-63.8,0.1l-31.4,26.1 h-79.3c-5.5,0-10.4,4.1-10.4,9.7v64.7l-52.8,43.9c-2.2,1.9-3.5,4.8-3.4,7.7h0.2v223.9c0,27.6,22.2,50.1,49.7,50.1h318.5 c27.6,0,49.7-22.6,49.7-50.1v-223.9h0.2C428.173,160.663,426.973,157.863,424.673,155.963z M370.873,137.063l31.5,26.2l-31.5,23.4 V137.063z M199.773,26.863c11.1-9.2,27.2-9.1,38.3,0.1l12.7,10.7h-63.9L199.773,26.863z M85.873,57.663h265v143.9l-113.9,84.8 c-10.8,7.9-25.4,7.9-36.1,0l-115-85.6V57.663z M65.873,137.963v47.9l-30.5-22.7L65.873,137.963z M407.873,387.463 c0.1,16.6-13.2,30.1-29.7,30.2h-318.6c-16.5-0.1-29.8-13.6-29.7-30.1v-204l159.2,118.9c17.7,13.1,41.9,13.1,59.6,0l159.2-118.9 V387.463z"/>
        <path d="M210.873,137.663h-54c-5.5,0-10,4.5-10,10s4.5,10,10,10h54c5.5,0,10-4.5,10-10S216.373,137.663,210.873,137.663z"/>
        <path d="M280.873,187.663h-124c-5.5,0-10,4.5-10,10s4.5,10,10,10h124c5.5,0,10-4.5,10-10S286.373,187.663,280.873,187.663z"/>
    </svg>

    <svg id="key" viewBox="0 0 512 512" xmlns="http://www.w3.org/2000/svg" fill="currentColor" stroke="currentColor">
        <path d="M334.974,0c-95.419,0-173.049,77.63-173.049,173.049c0,21.213,3.769,41.827,11.211,61.403L7.672,399.928 c-2.365,2.366-3.694,5.573-3.694,8.917v90.544c0,6.965,5.646,12.611,12.611,12.611h74.616c3.341,0,6.545-1.325,8.91-3.686 l25.145-25.107c2.37-2.366,3.701-5.577,3.701-8.925v-30.876h30.837c6.965,0,12.611-5.646,12.611-12.611v-12.36h12.361 c6.964,0,12.611-5.646,12.611-12.611v-27.136h27.136c3.344,0,6.551-1.329,8.917-3.694l40.121-40.121 c19.579,7.449,40.196,11.223,61.417,11.223c95.419,0,173.049-77.63,173.049-173.049C508.022,77.63,430.393,0,334.974,0z  M334.974,320.874c-20.642,0-40.606-4.169-59.339-12.393c-4.844-2.126-10.299-0.956-13.871,2.525 c-0.039,0.037-0.077,0.067-0.115,0.106l-42.354,42.354h-34.523c-6.965,0-12.611,5.646-12.611,12.611v27.136H159.8 c-6.964,0-12.611,5.646-12.611,12.611v12.36h-30.838c-6.964,0-12.611,5.646-12.611,12.611v38.257l-17.753,17.725H29.202v-17.821 l154.141-154.14c4.433-4.433,4.433-11.619,0-16.051s-11.617-4.434-16.053,0L29.202,436.854V414.07l167.696-167.708 c0.038-0.038,0.067-0.073,0.102-0.11c3.482-3.569,4.656-9.024,2.53-13.872c-8.216-18.732-12.38-38.695-12.38-59.33 c0-81.512,66.315-147.827,147.827-147.827S482.802,91.537,482.802,173.05C482.8,254.56,416.484,320.874,334.974,320.874z"/>
        <path d="M387.638,73.144c-26.047,0-47.237,21.19-47.237,47.237s21.19,47.237,47.237,47.237s47.237-21.19,47.237-47.237 S413.686,73.144,387.638,73.144z M387.638,142.396c-12.139,0-22.015-9.876-22.015-22.015s9.876-22.015,22.015-22.015 s22.015,9.876,22.015,22.015S399.777,142.396,387.638,142.396z"/>
    </svg>

    <svg id="minus" viewBox="0 0 401.991 401.991" xmlns="http://www.w3.org/2000/svg" fill="currentColor" stroke="currentColor">
        <path d="M394,154.174c-5.331-5.33-11.806-7.995-19.417-7.995H27.406c-7.611,0-14.084,2.665-19.414,7.995
		C2.662,159.503,0,165.972,0,173.587v54.82c0,7.617,2.662,14.086,7.992,19.41c5.33,5.332,11.803,7.994,19.414,7.994h347.176
		c7.611,0,14.086-2.662,19.417-7.994c5.325-5.324,7.991-11.793,7.991-19.41v-54.82C401.991,165.972,399.332,159.5,394,154.174z"/>
    </svg>

    <svg id="moveLeft" viewBox="0 0 963 963" xmlns="http://www.w3.org/2000/svg" fill="currentColor" stroke="currentColor">
        <path d="M481.5,963C747.4,963,963,747.4,963,481.5C963,215.6,747.4,0,481.5,0C215.6,0,0,215.6,0,481.5C0,747.4,215.6,963,481.5,963
            z M271.4,421.8l218.3-238.1c33.6-36.6,90.5-39.1,127.2-5.5c36.6,33.6,39.1,90.5,5.5,127.2L459.8,482.6L617.6,655
            c33.601,36.7,31,93.6-5.6,127.2c-17.3,15.8-39,23.6-60.7,23.6c-24.399,0-48.7-9.8-66.399-29.2L271.3,543.3
            C239.9,508.9,239.9,456.2,271.4,421.8z"/>
    </svg>

    <svg id="listView" viewBox="0 0 60.123 60.123" xmlns="http://www.w3.org/2000/svg" fill="currentColor" stroke="currentColor" stroke-width="1.5">
        <path d="M57.124,51.893H16.92c-1.657,0-3-1.343-3-3s1.343-3,3-3h40.203c1.657,0,3,1.343,3,3S58.781,51.893,57.124,51.893z"/>
        <path d="M57.124,33.062H16.92c-1.657,0-3-1.343-3-3s1.343-3,3-3h40.203c1.657,0,3,1.343,3,3
		C60.124,31.719,58.781,33.062,57.124,33.062z"/>
        <path d="M57.124,14.231H16.92c-1.657,0-3-1.343-3-3s1.343-3,3-3h40.203c1.657,0,3,1.343,3,3S58.781,14.231,57.124,14.231z"/>
        <circle cx="4.029" cy="11.463" r="4.029"/>
        <circle cx="4.029" cy="30.062" r="4.029"/>
        <circle cx="4.029" cy="48.661" r="4.029"/>
    </svg>

    <svg id="next" viewBox="0 0 494.148 494.148" xmlns="http://www.w3.org/2000/svg" fill="currentColor" stroke="currentColor">
        <path d="M405.284,201.188L130.804,13.28C118.128,4.596,105.356,0,94.74,0C74.216,0,61.52,16.472,61.52,44.044v406.124
			c0,27.54,12.68,43.98,33.156,43.98c10.632,0,23.2-4.6,35.904-13.308l274.608-187.904c17.66-12.104,27.44-28.392,27.44-45.884
			C432.632,229.572,422.964,213.288,405.284,201.188z"/>
    </svg>

    <svg id="notifications" viewBox="-2.5 -2.5 517 517" xmlns="http://www.w3.org/2000/svg" fill="currentColor" stroke="currentColor">
        <path stroke-width="2.5" d="m411 262.862v-47.862c0-69.822-46.411-129.001-110-148.33v-21.67c0-24.813-20.187-45-45-45s-45 20.187-45 45v21.67c-63.59 19.329-110 78.507-110 148.33v47.862c0 61.332-23.378 119.488-65.827 163.756-4.16 4.338-5.329 10.739-2.971 16.267s7.788 9.115 13.798 9.115h136.509c6.968 34.192 37.272 60 73.491 60 36.22 0 66.522-25.808 73.491-60h136.509c6.01 0 11.439-3.587 13.797-9.115s1.189-11.929-2.97-16.267c-42.449-44.268-65.827-102.425-65.827-163.756zm-170-217.862c0-8.271 6.729-15 15-15s15 6.729 15 15v15.728c-4.937-.476-9.94-.728-15-.728s-10.063.252-15 .728zm15 437c-19.555 0-36.228-12.541-42.42-30h84.84c-6.192 17.459-22.865 30-42.42 30zm-177.67-60c34.161-45.792 52.67-101.208 52.67-159.138v-47.862c0-68.925 56.075-125 125-125s125 56.075 125 125v47.862c0 57.93 18.509 113.346 52.671 159.138z"/>
    </svg>

    <svg id="options" viewBox="0 0 515.555 515.555" xmlns="http://www.w3.org/2000/svg" fill="currentColor" stroke="currentColor">
        <path d="m496.679 212.208c25.167 25.167 25.167 65.971 0 91.138s-65.971 25.167-91.138 0-25.167-65.971 0-91.138 65.971-25.167 91.138 0"/>
        <path d="m303.347 212.208c25.167 25.167 25.167 65.971 0 91.138s-65.971 25.167-91.138 0-25.167-65.971 0-91.138 65.971-25.167 91.138 0"/>
        <path d="m110.014 212.208c25.167 25.167 25.167 65.971 0 91.138s-65.971 25.167-91.138 0-25.167-65.971 0-91.138 65.971-25.167 91.138 0"/>
    </svg>

    <svg id="padlock" viewBox="0 0 24 24" xmlns="http://www.w3.org/2000/svg" fill="currentColor" stroke="currentColor">
        <path d="m18.75 9h-.75v-3c0-3.309-2.691-6-6-6s-6 2.691-6 6v3h-.75c-1.24 0-2.25 1.009-2.25 2.25v10.5c0 1.241 1.01 2.25 2.25 2.25h13.5c1.24 0 2.25-1.009 2.25-2.25v-10.5c0-1.241-1.01-2.25-2.25-2.25zm-10.75-3c0-2.206 1.794-4 4-4s4 1.794 4 4v3h-8zm5 10.722v2.278c0 .552-.447 1-1 1s-1-.448-1-1v-2.278c-.595-.347-1-.985-1-1.722 0-1.103.897-2 2-2s2 .897 2 2c0 .737-.405 1.375-1 1.722z"/>
    </svg>

    <svg id="paintbrush" viewBox="0 0 444.892 444.892" xmlns="http://www.w3.org/2000/svg" fill="currentColor" stroke="currentColor">
        <path d="M440.498,173.103c5.858-5.857,5.858-15.355,0-21.213l-22.511-22.511c-5.091-5.091-13.084-5.846-19.038-1.8
		l-47.332,32.17l31.975-47.652c3.993-5.951,3.219-13.897-1.85-18.964l-48.83-48.83c-4.508-4.508-11.372-5.675-17.114-2.908
		l-8.443,4.065l4.043-8.97c2.563-5.685,1.341-12.361-3.068-16.771L293.002,4.393c-5.857-5.857-15.355-5.857-21.213,0
		l-119.06,119.059l168.71,168.71L440.498,173.103z"/>
        <path d="M130.56,145.622l-34.466,34.466c-2.813,2.813-4.394,6.628-4.394,10.606s1.58,7.794,4.394,10.606
		l32.694,32.694c6.299,6.299,9.354,14.992,8.382,23.849c-0.971,8.851-5.843,16.677-13.366,21.473
		C27.736,340.554,18.781,349.51,15.839,352.453c-21.119,21.118-21.119,55.48,0,76.6c21.14,21.14,55.504,21.098,76.6,0
		c2.944-2.943,11.902-11.902,73.136-107.965c4.784-7.505,12.607-12.366,21.462-13.339c8.883-0.969,17.575,2.071,23.859,8.354
		l32.694,32.694c5.857,5.857,15.356,5.857,21.213,0l34.467-34.467L130.56,145.622z M70.05,404.825c-8.28,8.28-21.704,8.28-29.983,0
		c-8.28-8.28-8.28-21.704,0-29.983c8.28-8.28,21.704-8.28,29.983,0C78.33,383.121,78.33,396.545,70.05,404.825z"/>
    </svg>

    <svg id="pencil" viewBox="0 0 512 512" xmlns="http://www.w3.org/2000/svg" fill="currentColor" stroke="currentColor">
        <path d="M 498.82812,76.84375 435.15625,13.167969 C 426.66797,4.683594 415.36328,0.00390625 403.32812,0 h -0.0195 c -12.03515,0 -23.33203,4.671875 -31.8125,13.152344 L 46.847656,337.79687 c -2.660156,2.72266 -3.753906,6.59766 -4.542968,9.02344 L 0.578125,492.86719 C -0.917969,498.10937 0.542969,503.75 4.394531,507.60156 7.25,510.45703 11.085938,512 15.007812,512 c 1.378907,0 2.765626,-0.1875 4.125,-0.57813 L 165.09766,469.71875 c 0.43359,-0.125 6.88281,-2.34375 9.10546,-4.56641 L 498.84766,140.50391 C 507.33594,132.01953 512.00391,120.71484 512,108.67188 511.99609,96.636719 507.31641,85.332031 498.82812,76.84375 Z M 36.863281,475.13672 64.886719,377.05859 78.6875,348.41016 163.58984,433.3125 134.64,447.11324 Z M 163.58984,433.3125 78.6875,348.41016 339.64062,87.457031 424.54297,172.35937 Z M 477.62109,119.28125 445.76953,151.13672 360.86328,66.230469 392.71875,34.378906 c 2.8125,-2.8125 6.57422,-4.359375 10.58984,-4.359375 h 0.008 c 4.02343,0 7.79296,1.554688 10.61328,4.375 l 63.67578,63.675781 c 5.85156,5.851558 5.85937,15.367188 0.0156,21.210938 z"/>
    </svg>

    <svg id="pinned" viewBox="0 0 475.085 475.085" xmlns="http://www.w3.org/2000/svg" fill="currentColor" stroke="currentColor">
        <path d="m 379.577,247.395 c -14.944,-18.75 -31.833,-28.12 -50.679,-28.12 V 73.092 c 9.896,0 18.47,-3.616 25.693,-10.848 7.238,-7.233 10.858,-15.802 10.858,-25.697 0,-9.9 -3.62,-18.464 -10.858,-25.697 C 347.368,3.617 338.795,0 328.898,0 H 146.179 c -9.9,0 -18.464,3.617 -25.697,10.85 -7.234,7.233 -10.85,15.796 -10.85,25.697 0,9.899 3.616,18.464 10.85,25.697 7.233,7.232 15.8,10.848 25.697,10.848 v 146.179 c -18.844,0 -35.734,9.374 -50.677,28.123 -14.941,18.75 -22.414,39.824 -22.414,63.242 0,4.948 1.809,9.232 5.426,12.847 3.619,3.613 7.901,5.421 12.85,5.421 h 115.344 l 21.698,138.474 c 0.95,5.141 3.996,7.707 9.135,7.707 h 0.291 c 2.274,0 4.235,-0.808 5.851,-2.423 1.615,-1.619 2.614,-3.572 2.994,-5.855 l 14.558,-137.902 h 122.482 c 4.948,0 9.236,-1.808 12.847,-5.421 3.621,-3.614 5.432,-7.898 5.432,-12.847 0.003,-23.415 -7.477,-44.492 -22.419,-63.242 z"/>
    </svg>

    <svg id="search" viewBox="0 0 56.966 56.966" xmlns="http://www.w3.org/2000/svg" fill="currentColor" stroke="currentColor">
        <path d="M55.146,51.887L41.588,37.786c3.486-4.144,5.396-9.358,5.396-14.786c0-12.682-10.318-23-23-23s-23,10.318-23,23s10.318,23,23,23c4.761,0,9.298-1.436,13.177-4.162l13.661,14.208c0.571,0.593,1.339,0.92,2.162,0.92c0.779,0,1.518-0.297,2.079-0.837C56.255,54.982,56.293,53.08,55.146,51.887z M23.984,6c9.374,0,17,7.626,17,17s-7.626,17-17,17s-17-7.626-17-17S14.61,6,23.984,6z"/>
    </svg>

    <svg id="settings" viewBox="-10 -10 532 532" stroke-width="2.5" xmlns="http://www.w3.org/2000/svg" fill="currentColor" stroke="currentColor">
        <path d="M500.537,212.423l-59.884-14.532c-3.344-10.535-7.559-20.729-12.595-30.463l30.723-51.203 c3.541-5.902,2.611-13.457-2.256-18.324L414.1,55.475c-4.867-4.867-12.423-5.797-18.323-2.256L344.57,83.941 c-9.735-5.038-19.931-9.253-30.461-12.595l-14.532-59.883C297.944,4.736,291.922,0,285,0h-60c-6.922,0-12.944,4.736-14.577,11.463 l-14.532,59.883c-10.53,3.342-20.726,7.558-30.461,12.595l-51.206-30.722c-5.901-3.541-13.455-2.611-18.323,2.256L53.475,97.9 c-4.867,4.867-5.797,12.422-2.256,18.324l30.723,51.203c-5.047,9.754-9.27,19.971-12.616,30.529l-57.963,14.491 C4.685,214.117,0,220.117,0,227v60c0,6.883,4.685,12.883,11.362,14.552l57.963,14.491c3.348,10.56,7.568,20.774,12.615,30.528 l-30.722,51.203c-3.541,5.902-2.611,13.457,2.256,18.324L95.9,458.525c4.866,4.867,12.421,5.797,18.324,2.256l51.203-30.722 c9.754,5.047,19.972,9.269,30.529,12.616l14.491,57.963C212.117,507.315,218.117,512,225,512h60 c6.883,0,12.883-4.685,14.552-11.362l14.491-57.963c10.558-3.347,20.775-7.569,30.529-12.616l51.203,30.722 c5.901,3.541,13.457,2.611,18.324-2.256l42.426-42.427c4.867-4.867,5.797-12.422,2.256-18.324l-30.722-51.203 c5.036-9.732,9.25-19.926,12.594-30.461l59.884-14.533C507.264,299.945,512,293.922,512,287v-60 C512,220.078,507.264,214.055,500.537,212.423z M482,275.205L425.156,289c-5.333,1.294-9.534,5.397-10.953,10.699 c-3.746,13.998-9.269,27.357-16.413,39.705c-2.731,4.721-2.686,10.552,0.121,15.229l29.12,48.533l-25.863,25.864l-48.532-29.119 c-4.677-2.807-10.509-2.853-15.229-0.122c-12.353,7.146-25.713,12.668-39.709,16.415c-5.266,1.409-9.353,5.564-10.674,10.852 L273.288,482h-36.576l-13.736-54.944c-1.321-5.288-5.408-9.443-10.674-10.852c-13.996-3.746-27.356-9.269-39.709-16.415 c-4.72-2.73-10.551-2.685-15.229,0.122l-48.532,29.119l-25.863-25.864l29.12-48.533c2.807-4.677,2.853-10.509,0.121-15.229 c-7.145-12.348-12.667-25.707-16.413-39.705c-1.409-5.265-5.564-9.352-10.853-10.674L30,275.288v-36.577l54.944-13.736 c5.288-1.322,9.443-5.408,10.853-10.674c3.746-13.998,9.269-27.357,16.414-39.708c2.73-4.721,2.684-10.552-0.122-15.229 l-29.12-48.533l25.863-25.863l48.535,29.12c4.675,2.806,10.507,2.852,15.228,0.121c12.358-7.149,25.718-12.671,39.706-16.414 c5.302-1.418,9.405-5.619,10.7-10.953L236.795,30h36.41l13.794,56.844c1.295,5.333,5.398,9.534,10.7,10.953 c13.988,3.743,27.348,9.265,39.706,16.414c4.719,2.731,10.552,2.685,15.228-0.121l48.535-29.12l25.863,25.863l-29.12,48.533 c-2.806,4.677-2.853,10.508-0.122,15.229c7.146,12.351,12.668,25.71,16.414,39.708c1.419,5.301,5.62,9.405,10.953,10.699 L482,238.795V275.205z"/>
        <path d="M255,152c-57.897,0-105,47.103-105,105c0,57.897,47.103,105,105,105c57.897,0,105-47.103,105-105 C360,199.103,312.897,152,255,152z M255,332c-41.355,0-75-33.645-75-75c0-41.355,33.645-75,75-75s75,33.645,75,75 S296.355,332,255,332z"/>
    </svg>

    <svg id="share" viewBox="-21 0 512 512" xmlns="http://www.w3.org/2000/svg" fill="currentColor" stroke="currentColor">
        <path d="m389.332031 160c-44.09375 0-80-35.882812-80-80s35.90625-80 80-80c44.097657 0 80 35.882812 80 80s-35.902343 80-80 80zm0-128c-26.453125 0-48 21.523438-48 48s21.546875 48 48 48 48-21.523438 48-48-21.546875-48-48-48zm0 0"/>
        <path d="m389.332031 512c-44.09375 0-80-35.882812-80-80s35.90625-80 80-80c44.097657 0 80 35.882812 80 80s-35.902343 80-80 80zm0-128c-26.453125 0-48 21.523438-48 48s21.546875 48 48 48 48-21.523438 48-48-21.546875-48-48-48zm0 0"/>
        <path d="m80 336c-44.097656 0-80-35.882812-80-80s35.902344-80 80-80 80 35.882812 80 80-35.902344 80-80 80zm0-128c-26.453125 0-48 21.523438-48 48s21.546875 48 48 48 48-21.523438 48-48-21.546875-48-48-48zm0 0"/>
        <path d="m135.703125 240.425781c-5.570313 0-10.988281-2.902343-13.910156-8.0625-4.375-7.679687-1.707031-17.453125 5.972656-21.824219l197.953125-112.855468c7.65625-4.414063 17.449219-1.726563 21.800781 5.976562 4.375 7.679688 1.707031 17.449219-5.972656 21.824219l-197.953125 112.851563c-2.496094 1.40625-5.203125 2.089843-7.890625 2.089843zm0 0"/>
        <path d="m333.632812 416.425781c-2.6875 0-5.398437-.683593-7.894531-2.109375l-197.953125-112.855468c-7.679687-4.371094-10.34375-14.144532-5.972656-21.824219 4.351562-7.699219 14.125-10.367188 21.804688-5.972657l197.949218 112.851563c7.679688 4.375 10.347656 14.144531 5.976563 21.824219-2.945313 5.183594-8.363281 8.085937-13.910157 8.085937zm0 0"/>
    </svg>

    <svg id="signOut" viewBox="-10 -10 532 532" stroke-width="10" xmlns="http://www.w3.org/2000/svg" fill="currentColor" stroke="currentColor">
        <path d="m361.5 392v40c0 44.113281-35.886719 80-80 80h-201c-44.113281 0-80-35.886719-80-80v-352c0-44.113281 35.886719-80 80-80h201c44.113281 0 80 35.886719 80 80v40c0 11.046875-8.953125 20-20 20s-20-8.953125-20-20v-40c0-22.054688-17.945312-40-40-40h-201c-22.054688 0-40 17.945312-40 40v352c0 22.054688 17.945312 40 40 40h201c22.054688 0 40-17.945312 40-40v-40c0-11.046875 8.953125-20 20-20s20 8.953125 20 20zm136.355469-170.355469-44.785157-44.785156c-7.8125-7.8125-20.476562-7.8125-28.285156 0-7.8125 7.808594-7.8125 20.472656 0 28.28125l31.855469 31.859375h-240.140625c-11.046875 0-20 8.953125-20 20s8.953125 20 20 20h240.140625l-31.855469 31.859375c-7.8125 7.808594-7.8125 20.472656 0 28.28125 3.90625 3.90625 9.023438 5.859375 14.140625 5.859375 5.121094 0 10.238281-1.953125 14.144531-5.859375l44.785157-44.785156c19.496093-19.496094 19.496093-51.214844 0-70.710938zm0 0"/>
    </svg>

    <svg id="sort" viewBox="0 0 16 16" xmlns="http://www.w3.org/2000/svg" fill="currentColor" stroke="currentColor">
        <path d="M11 6.5h-6l3-4z"/>
        <path d="M5 9.5h6l-3 4z"/>
    </svg>

    <svg id="status" viewBox="0 0 512 512" xmlns="http://www.w3.org/2000/svg" fill="currentColor">
        <path d="m368 511.957031h-309.332031c-32.363281 0-58.667969-26.304687-58.667969-58.667969v-309.332031c0-32.363281 26.304688-58.667969 58.667969-58.667969h181.332031c8.832031 0 16 7.167969 16 16 0 8.832032-7.167969 16-16 16h-181.332031c-14.699219 0-26.667969 11.96875-26.667969 26.667969v309.332031c0 14.699219 11.96875 26.667969 26.667969 26.667969h309.332031c14.699219 0 26.667969-11.96875 26.667969-26.667969v-181.332031c0-8.832031 7.167969-16 16-16s16 7.148438 16 16v181.332031c0 32.363282-26.304688 58.667969-58.667969 58.667969zm0 0"/>
        <path d="m187.136719 340.820312c-4.203125 0-8.300781-1.664062-11.308594-4.691406-3.796875-3.777344-5.417969-9.21875-4.371094-14.445312l15.082031-75.433594c.617188-3.113281 2.152344-5.953125 4.371094-8.171875l220.953125-220.925781c22.867188-22.871094 60.074219-22.871094 82.964844 0 11.070313 11.070312 17.171875 25.792968 17.171875 41.472656s-6.101562 30.398438-17.195312 41.472656l-220.925782 220.949219c-2.21875 2.238281-5.078125 3.753906-8.171875 4.371094l-75.414062 15.082031c-1.046875.214844-2.113281.320312-3.15625.320312zm75.433593-31.082031h.214844zm-45.609374-52.457031-9.410157 47.144531 47.125-9.429687 217.515625-217.511719c5.035156-5.058594 7.808594-11.734375 7.808594-18.859375s-2.773438-13.804688-7.808594-18.859375c-10.367187-10.390625-27.285156-10.390625-37.714844 0zm0 0"/>
        <path d="m453.332031 134.976562c-4.09375 0-8.191406-1.558593-11.304687-4.695312l-60.332032-60.351562c-6.25-6.25-6.25-16.382813 0-22.632813s16.382813-6.25 22.636719 0l60.328125 60.351563c6.25 6.25 6.25 16.382812 0 22.632812-3.136718 3.117188-7.230468 4.695312-11.328125 4.695312zm0 0"/>
    </svg>

    <svg id="subtask" xmlns="http://www.w3.org/2000/svg" viewBox="0 0 16 16" fill="currentColor" stroke="currentColor">
        <path fill-rule="evenodd" clip-rule="evenodd" d="M2 3.5a2.5 2.5 0 113 2.45V9.5A2.5 2.5 0 007.5 12h2.55a2.5 2.5 0 110 1H7.5A3.5 3.5 0 014 9.5V5.95A2.5 2.5 0 012 3.5zM4.5 2a1.5 1.5 0 100 3 1.5 1.5 0 000-3zm8 9a1.5 1.5 0 100 3 1.5 1.5 0 000-3"/>
    </svg>

    <svg id="subtaskAdd" xmlns="http://www.w3.org/2000/svg" viewBox="0 0 16 16" fill="currentColor" stroke="currentColor">
        <path fill-rule="evenodd" clip-rule="evenodd" d="M2 3.5a2.5 2.5 0 113 2.45V9.5A2.5 2.5 0 007.5 12h2.55a2.5 2.5 0 110 1H7.5A3.5 3.5 0 014 9.5V5.95A2.5 2.5 0 012 3.5zM4.5 2a1.5 1.5 0 100 3 1.5 1.5 0 000-3zm8 9a1.5 1.5 0 100 3 1.5 1.5 0 000-3zm0-10a.5.5 0 01.5.5V3h1.5a.5.5 0 010 1H13v1.5a.5.5 0 01-1 0V4h-1.5a.5.5 0 010-1H12V1.5a.5.5 0 01.5-.5z"/>
    </svg>

    <svg id="tag" viewBox="0 0 512.0015 512" xmlns="http://www.w3.org/2000/svg" fill="currentColor" stroke="currentColor">
        <path d="m456.882812 0h-194.308593c-3.976563 0-7.792969 1.582031-10.605469 4.394531l-235.855469 235.847657c-21.484375 21.492187-21.484375 56.457031 0 77.941406l177.699219 177.695312c10.375 10.375 24.214844 16.089844 38.964844 16.09375h.003906c14.753906 0 28.59375-5.71875 38.972656-16.097656l235.847656-235.851562c2.8125-2.8125 4.394532-6.628907 4.394532-10.605469l.003906-194.308594c-.003906-30.386719-24.730469-55.109375-55.117188-55.109375zm25.113282 243.207031-231.457032 231.457031c-4.710937 4.714844-11.019531 7.308594-17.757812 7.308594-6.742188 0-13.046875-2.59375-17.757812-7.304687l-177.699219-177.695313c-9.789063-9.789062-9.789063-25.726562 0-35.519531l231.460937-231.453125h188.097656c13.847657 0 25.117188 11.265625 25.117188 25.113281zm0 0"/>
        <path d="m379.785156 85.078125c-12.589844 0-24.425781 4.90625-33.328125 13.808594-8.902343 8.898437-13.804687 20.734375-13.804687 33.324219 0 12.589843 4.902344 24.425781 13.804687 33.328124 8.902344 8.902344 20.738281 13.804688 33.328125 13.804688 12.585938 0 24.421875-4.902344 33.324219-13.804688 8.902344-8.902343 13.804687-20.738281 13.804687-33.328124 0-12.589844-4.902343-24.425782-13.800781-33.324219-8.902343-8.902344-20.738281-13.808594-33.328125-13.808594zm12.113282 59.246094c-3.234376 3.238281-7.539063 5.019531-12.113282 5.019531-4.578125 0-8.878906-1.78125-12.113281-5.019531-3.238281-3.234375-5.019531-7.539063-5.019531-12.113281 0-4.574219 1.78125-8.878907 5.019531-12.113282 3.234375-3.238281 7.539063-5.019531 12.113281-5.019531 4.574219 0 8.875 1.78125 12.113282 5.019531 3.238281 3.234375 5.019531 7.539063 5.019531 12.113282 0 4.574218-1.785157 8.878906-5.019531 12.113281zm0 0"/>
    </svg>

    <svg id="template" viewBox="0 0 512 512" xmlns="http://www.w3.org/2000/svg" fill="currentColor" stroke="currentColor">
        <path d="M491.383,0H20.617C9.23,0,0,9.23,0,20.617v470.765C0,502.77,9.23,512,20.617,512h470.765 C502.77,512,512,502.77,512,491.383V20.617C512,9.23,502.77,0,491.383,0z M470.765,470.765H41.235V41.235h429.53V470.765z"/>
        <rect x="20.617" y="173.187" width="471.452" height="41.235"/>
        <rect x="298.266" y="193.804" width="41.235" height="298.266"/>
        <rect x="20.617" y="318.196" width="298.266" height="41.235"/>
    </svg>

    <svg id="undo" viewBox="0 0 26.676 26.676" xmlns="http://www.w3.org/2000/svg" fill="currentColor" stroke="currentColor">
        <path d="M26.105,21.891c-0.229,0-0.439-0.131-0.529-0.346l0,0c-0.066-0.156-1.716-3.857-7.885-4.59
		c-1.285-0.156-2.824-0.236-4.693-0.25v4.613c0,0.213-0.115,0.406-0.304,0.508c-0.188,0.098-0.413,0.084-0.588-0.033L0.254,13.815
		C0.094,13.708,0,13.528,0,13.339c0-0.191,0.094-0.365,0.254-0.477l11.857-7.979c0.175-0.121,0.398-0.129,0.588-0.029
		c0.19,0.102,0.303,0.295,0.303,0.502v4.293c2.578,0.336,13.674,2.33,13.674,11.674c0,0.271-0.191,0.508-0.459,0.562
		C26.18,21.891,26.141,21.891,26.105,21.891z"/>
    </svg>

    <svg id="user" viewBox="5 5 22 22" xmlns="http://www.w3.org/2000/svg" fill="currentColor" stroke="currentColor">
        <path class="cls-1" d="M19.75,15.67a6,6,0,1,0-7.51,0A11,11,0,0,0,5,26v1H27V26A11,11,0,0,0,19.75,15.67ZM12,11a4,4,0,1,1,4,4A4,4,0,0,1,12,11ZM7.06,25a9,9,0,0,1,17.89,0Z"/>
    </svg>

    <svg id="warning" viewBox="0 0 512 512" xmlns="http://www.w3.org/2000/svg" fill="currentColor" stroke="currentColor">
        <path d="M501.609,384.603L320.543,51.265c-13.666-23.006-37.802-36.746-64.562-36.746c-26.76,0-50.896,13.74-64.562,36.746
			c-0.103,0.176-0.19,0.352-0.293,0.528L10.662,384.076c-13.959,23.491-14.223,51.702-0.719,75.457
			c13.535,23.769,37.919,37.948,65.266,37.948h360.544c27.347,0,52.733-14.179,66.267-37.948
			C515.524,435.779,515.261,407.566,501.609,384.603z M225.951,167.148c0-16.586,13.445-30.03,30.03-30.03
			c16.586,0,30.03,13.445,30.03,30.03v120.121c0,16.584-13.445,30.03-30.03,30.03s-30.03-13.447-30.03-30.03V167.148z
			 M255.981,437.421c-24.839,0-45.046-20.206-45.046-45.046c0-24.839,20.206-45.045,45.046-45.045
			c24.839,0,45.045,20.206,45.045,45.045C301.027,417.214,280.821,437.421,255.981,437.421z"/>
    </svg>
</svg>